REM DIRINDEX 1\2,1\3,1\4,1\5
REM DIRNAME cjc044,folder01,folder02,folder03,folder04
TITLE ""
FILE "1800_087.mp3" MP3
  TRACK 01 AUDIO
    TITLE "2:cjc044_2317"
    INDEX 01 00:00:00
  TRACK 02 AUDIO
    TITLE "0:"
    INDEX 01 00:01:26
  TRACK 03 AUDIO
    TITLE "3:cjc044_2318"
    INDEX 01 00:02:02
  TRACK 04 AUDIO
    TITLE "0:"
    INDEX 01 00:03:17
  TRACK 05 AUDIO
    TITLE "4:cjc044_2319"
    INDEX 01 00:03:74
  TRACK 06 AUDIO
    TITLE "0:"
    INDEX 01 00:05:32
  TRACK 07 AUDIO
    TITLE "5:cjc044_2320"
    INDEX 01 00:06:08
  TRACK 08 AUDIO
    TITLE "0:"
    INDEX 01 00:09:67
  TRACK 09 AUDIO
    TITLE "2:cjc044_2321"
    INDEX 01 00:11:48
  TRACK 10 AUDIO
    TITLE "0:"
    INDEX 01 00:13:14
  TRACK 11 AUDIO
    TITLE "3:cjc044_2322"
    INDEX 01 00:13:73
  TRACK 12 AUDIO
    TITLE "0:"
    INDEX 01 00:15:19
  TRACK 13 AUDIO
    TITLE "4:cjc044_2323"
    INDEX 01 00:16:00
  TRACK 14 AUDIO
    TITLE "0:"
    INDEX 01 00:17:43
  TRACK 15 AUDIO
    TITLE "5:cjc044_2324"
    INDEX 01 00:18:29
  TRACK 16 AUDIO
    TITLE "0:"
    INDEX 01 00:22:03
  TRACK 17 AUDIO
    TITLE "2:cjc044_2325"
    INDEX 01 00:23:59
  TRACK 18 AUDIO
    TITLE "0:"
    INDEX 01 00:25:09
  TRACK 19 AUDIO
    TITLE "3:cjc044_2326"
    INDEX 01 00:25:66
  TRACK 20 AUDIO
    TITLE "0:"
    INDEX 01 00:26:67
  TRACK 21 AUDIO
    TITLE "4:cjc044_2327"
    INDEX 01 00:27:53
  TRACK 22 AUDIO
    TITLE "0:"
    INDEX 01 00:29:03
  TRACK 23 AUDIO
    TITLE "5:cjc044_2328"
    INDEX 01 00:29:56
  TRACK 24 AUDIO
    TITLE "0:"
    INDEX 01 00:33:60
  TRACK 25 AUDIO
    TITLE "2:cjc044_2329"
    INDEX 01 00:35:41
  TRACK 26 AUDIO
    TITLE "0:"
    INDEX 01 00:36:40
  TRACK 27 AUDIO
    TITLE "3:cjc044_2330"
    INDEX 01 00:37:20
  TRACK 28 AUDIO
    TITLE "0:"
    INDEX 01 00:39:03
  TRACK 29 AUDIO
    TITLE "4:cjc044_2331"
    INDEX 01 00:39:56
  TRACK 30 AUDIO
    TITLE "0:"
    INDEX 01 00:40:54
  TRACK 31 AUDIO
    TITLE "5:cjc044_2332"
    INDEX 01 00:41:30
  TRACK 32 AUDIO
    TITLE "0:"
    INDEX 01 00:44:40
  TRACK 33 AUDIO
    TITLE "2:cjc044_2333"
    INDEX 01 00:46:33
  TRACK 34 AUDIO
    TITLE "0:"
    INDEX 01 00:47:38
  TRACK 35 AUDIO
    TITLE "3:cjc044_2334"
    INDEX 01 00:48:20
  TRACK 36 AUDIO
    TITLE "0:"
    INDEX 01 00:49:25
  TRACK 37 AUDIO
    TITLE "4:cjc044_2335"
    INDEX 01 00:50:17
  TRACK 38 AUDIO
    TITLE "0:"
    INDEX 01 00:51:22
  TRACK 39 AUDIO
    TITLE "5:cjc044_2336"
    INDEX 01 00:52:04
  TRACK 40 AUDIO
    TITLE "0:"
    INDEX 01 00:55:28
  TRACK 41 AUDIO
    TITLE "2:cjc044_2337"
    INDEX 01 00:57:13
  TRACK 42 AUDIO
    TITLE "0:"
    INDEX 01 00:58:48
  TRACK 43 AUDIO
    TITLE "3:cjc044_2338"
    INDEX 01 00:59:32
  TRACK 44 AUDIO
    TITLE "0:"
    INDEX 01 01:00:70
  TRACK 45 AUDIO
    TITLE "4:cjc044_2339"
    INDEX 01 01:01:48
  TRACK 46 AUDIO
    TITLE "0:"
    INDEX 01 01:03:10
  TRACK 47 AUDIO
    TITLE "5:cjc044_2340"
    INDEX 01 01:03:69
  TRACK 48 AUDIO
    TITLE "0:"
    INDEX 01 01:07:21
  TRACK 49 AUDIO
    TITLE "2:cjc044_2341"
    INDEX 01 01:09:12
  TRACK 50 AUDIO
    TITLE "0:"
    INDEX 01 01:10:14
  TRACK 51 AUDIO
    TITLE "3:cjc044_2342"
    INDEX 01 01:11:03
  TRACK 52 AUDIO
    TITLE "0:"
    INDEX 01 01:13:18
  TRACK 53 AUDIO
    TITLE "4:cjc044_2343"
    INDEX 01 01:14:04
  TRACK 54 AUDIO
    TITLE "0:"
    INDEX 01 01:15:07
  TRACK 55 AUDIO
    TITLE "5:cjc044_2344"
    INDEX 01 01:15:60
  TRACK 56 AUDIO
    TITLE "0:"
    INDEX 01 01:18:56
  TRACK 57 AUDIO
    TITLE "2:cjc044_2345"
    INDEX 01 01:20:40
  TRACK 58 AUDIO
    TITLE "0:"
    INDEX 01 01:21:63
  TRACK 59 AUDIO
    TITLE "3:cjc044_2346"
    INDEX 01 01:22:46
  TRACK 60 AUDIO
    TITLE "0:"
    INDEX 01 01:23:63
  TRACK 61 AUDIO
    TITLE "4:cjc044_2347"
    INDEX 01 01:24:41
  TRACK 62 AUDIO
    TITLE "0:"
    INDEX 01 01:25:66
  TRACK 63 AUDIO
    TITLE "5:cjc044_2348"
    INDEX 01 01:26:48
  TRACK 64 AUDIO
    TITLE "0:"
    INDEX 01 01:30:36
